<mxfile host="Electron" agent="Mozilla/5.0 (Windows NT 10.0; Win64; x64) AppleWebKit/537.36 (KHTML, like Gecko) draw.io/25.0.2 Chrome/128.0.6613.186 Electron/32.2.5 Safari/537.36" version="25.0.2">
  <diagram name="Page-1" id="2YBvvXClWsGukQMizWep">
    <mxGraphModel dx="1034" dy="511" grid="1" gridSize="10" guides="1" tooltips="1" connect="1" arrows="1" fold="1" page="1" pageScale="1" pageWidth="850" pageHeight="1100" math="0" shadow="0">
      <root>
        <mxCell id="0" />
        <mxCell id="1" parent="0" />
        <mxCell id="_Ce9uf1wOAP1MZpKsaxj-3" value=":Catalogo_Control" style="shape=umlLifeline;perimeter=lifelinePerimeter;whiteSpace=wrap;html=1;container=1;dropTarget=0;collapsible=0;recursiveResize=0;outlineConnect=0;portConstraint=eastwest;newEdgeStyle={&quot;curved&quot;:0,&quot;rounded&quot;:0};" parent="1" vertex="1">
          <mxGeometry x="300" y="240" width="125" height="300" as="geometry" />
        </mxCell>
        <mxCell id="_Ce9uf1wOAP1MZpKsaxj-10" value="" style="html=1;points=[[0,0,0,0,5],[0,1,0,0,-5],[1,0,0,0,5],[1,1,0,0,-5]];perimeter=orthogonalPerimeter;outlineConnect=0;targetShapes=umlLifeline;portConstraint=eastwest;newEdgeStyle={&quot;curved&quot;:0,&quot;rounded&quot;:0};" parent="_Ce9uf1wOAP1MZpKsaxj-3" vertex="1">
          <mxGeometry x="57.5" y="95" width="10" height="105" as="geometry" />
        </mxCell>
        <mxCell id="_Ce9uf1wOAP1MZpKsaxj-4" value=":Catalogo" style="shape=umlLifeline;perimeter=lifelinePerimeter;whiteSpace=wrap;html=1;container=1;dropTarget=0;collapsible=0;recursiveResize=0;outlineConnect=0;portConstraint=eastwest;newEdgeStyle={&quot;curved&quot;:0,&quot;rounded&quot;:0};" parent="1" vertex="1">
          <mxGeometry x="440" y="240" width="100" height="300" as="geometry" />
        </mxCell>
        <mxCell id="_Ce9uf1wOAP1MZpKsaxj-13" value="" style="html=1;points=[[0,0,0,0,5],[0,1,0,0,-5],[1,0,0,0,5],[1,1,0,0,-5]];perimeter=orthogonalPerimeter;outlineConnect=0;targetShapes=umlLifeline;portConstraint=eastwest;newEdgeStyle={&quot;curved&quot;:0,&quot;rounded&quot;:0};" parent="_Ce9uf1wOAP1MZpKsaxj-4" vertex="1">
          <mxGeometry x="45" y="110" width="10" height="50" as="geometry" />
        </mxCell>
        <mxCell id="_Ce9uf1wOAP1MZpKsaxj-5" value=":NavBar_Boundary" style="shape=umlLifeline;perimeter=lifelinePerimeter;whiteSpace=wrap;html=1;container=1;dropTarget=0;collapsible=0;recursiveResize=0;outlineConnect=0;portConstraint=eastwest;newEdgeStyle={&quot;curved&quot;:0,&quot;rounded&quot;:0};" parent="1" vertex="1">
          <mxGeometry x="130" y="240" width="150" height="300" as="geometry" />
        </mxCell>
        <mxCell id="_Ce9uf1wOAP1MZpKsaxj-8" value="" style="html=1;points=[[0,0,0,0,5],[0,1,0,0,-5],[1,0,0,0,5],[1,1,0,0,-5]];perimeter=orthogonalPerimeter;outlineConnect=0;targetShapes=umlLifeline;portConstraint=eastwest;newEdgeStyle={&quot;curved&quot;:0,&quot;rounded&quot;:0};" parent="_Ce9uf1wOAP1MZpKsaxj-5" vertex="1">
          <mxGeometry x="70" y="60" width="10" height="160" as="geometry" />
        </mxCell>
        <mxCell id="_Ce9uf1wOAP1MZpKsaxj-9" value="" style="shape=umlDestroy;whiteSpace=wrap;html=1;strokeWidth=3;targetShapes=umlLifeline;" parent="_Ce9uf1wOAP1MZpKsaxj-5" vertex="1">
          <mxGeometry x="60" y="200" width="30" height="30" as="geometry" />
        </mxCell>
        <mxCell id="_Ce9uf1wOAP1MZpKsaxj-16" value="films" style="html=1;verticalAlign=bottom;endArrow=open;dashed=1;endSize=8;curved=0;rounded=0;" parent="1" source="_Ce9uf1wOAP1MZpKsaxj-13" edge="1">
          <mxGeometry relative="1" as="geometry">
            <mxPoint x="450" y="389.5" as="sourcePoint" />
            <mxPoint x="370" y="389.5" as="targetPoint" />
          </mxGeometry>
        </mxCell>
        <mxCell id="_Ce9uf1wOAP1MZpKsaxj-17" value=":Catalogo_Boundary" style="shape=umlLifeline;perimeter=lifelinePerimeter;whiteSpace=wrap;html=1;container=1;dropTarget=0;collapsible=0;recursiveResize=0;outlineConnect=0;portConstraint=eastwest;newEdgeStyle={&quot;curved&quot;:0,&quot;rounded&quot;:0};" parent="1" vertex="1">
          <mxGeometry x="550" y="410" width="140" height="300" as="geometry" />
        </mxCell>
        <mxCell id="_Ce9uf1wOAP1MZpKsaxj-23" value="" style="html=1;points=[[0,0,0,0,5],[0,1,0,0,-5],[1,0,0,0,5],[1,1,0,0,-5]];perimeter=orthogonalPerimeter;outlineConnect=0;targetShapes=umlLifeline;portConstraint=eastwest;newEdgeStyle={&quot;curved&quot;:0,&quot;rounded&quot;:0};" parent="_Ce9uf1wOAP1MZpKsaxj-17" vertex="1">
          <mxGeometry x="65" y="50" width="10" height="80" as="geometry" />
        </mxCell>
        <mxCell id="EzrTpVOWXjxOWBj55a4b-6" value="GetFilms()" style="html=1;verticalAlign=bottom;endArrow=block;curved=0;rounded=0;" parent="1" edge="1">
          <mxGeometry width="80" relative="1" as="geometry">
            <mxPoint x="366" y="370" as="sourcePoint" />
            <mxPoint x="483.5" y="370" as="targetPoint" />
          </mxGeometry>
        </mxCell>
        <mxCell id="EzrTpVOWXjxOWBj55a4b-7" value="viewCatalogo()" style="html=1;verticalAlign=bottom;endArrow=block;curved=0;rounded=0;" parent="1" edge="1">
          <mxGeometry width="80" relative="1" as="geometry">
            <mxPoint x="210" y="350" as="sourcePoint" />
            <mxPoint x="362" y="350" as="targetPoint" />
          </mxGeometry>
        </mxCell>
        <mxCell id="EzrTpVOWXjxOWBj55a4b-8" value="clickCatalogo()" style="html=1;verticalAlign=bottom;endArrow=block;curved=0;rounded=0;" parent="1" edge="1" source="ANBSTUyF8IlMNZ7j2O_e-1">
          <mxGeometry width="80" relative="1" as="geometry">
            <mxPoint x="69.5" y="320" as="sourcePoint" />
            <mxPoint x="200" y="320" as="targetPoint" />
          </mxGeometry>
        </mxCell>
        <mxCell id="EzrTpVOWXjxOWBj55a4b-9" value="" style="shape=umlLifeline;perimeter=lifelinePerimeter;whiteSpace=wrap;html=1;container=1;dropTarget=0;collapsible=0;recursiveResize=0;outlineConnect=0;portConstraint=eastwest;newEdgeStyle={&quot;curved&quot;:0,&quot;rounded&quot;:0};participant=umlActor;" parent="1" vertex="1">
          <mxGeometry x="60" y="240" width="20" height="300" as="geometry" />
        </mxCell>
        <mxCell id="ANBSTUyF8IlMNZ7j2O_e-1" value="" style="html=1;points=[[0,0,0,0,5],[0,1,0,0,-5],[1,0,0,0,5],[1,1,0,0,-5]];perimeter=orthogonalPerimeter;outlineConnect=0;targetShapes=umlLifeline;portConstraint=eastwest;newEdgeStyle={&quot;curved&quot;:0,&quot;rounded&quot;:0};" vertex="1" parent="EzrTpVOWXjxOWBj55a4b-9">
          <mxGeometry x="5" y="50" width="10" height="240" as="geometry" />
        </mxCell>
        <mxCell id="3g_ueOu1PGlt0KmzWCwc-1" value="createCatalogo(films)" style="endArrow=open;endSize=12;dashed=1;html=1;rounded=0;" parent="1" edge="1">
          <mxGeometry x="0.0323" y="10" width="160" relative="1" as="geometry">
            <mxPoint x="370" y="430" as="sourcePoint" />
            <mxPoint x="550" y="430" as="targetPoint" />
            <mxPoint as="offset" />
          </mxGeometry>
        </mxCell>
        <mxCell id="PJksCHImkUryhZvK9657-1" value="Utente" style="text;html=1;align=center;verticalAlign=middle;whiteSpace=wrap;rounded=0;" parent="1" vertex="1">
          <mxGeometry x="40" y="220" width="60" height="30" as="geometry" />
        </mxCell>
      </root>
    </mxGraphModel>
  </diagram>
</mxfile>
